<svg xmlns="http://www.w3.org/2000/svg" viewBox="0 0 128 128" role="img" aria-label="DS">
  <rect width="128" height="128" rx="28" fill="#0b0b0b"/>
  <circle cx="26" cy="28" r="9" fill="#ff5a36"/>
  <path d="M22 88V42h20c15 0 26 9 26 23s-11 23-26 23H22Zm14-12h6c7 0 12-4 12-11s-5-11-12-11h-6v22Z" fill="#f4f4f2"/>
  <path d="M72 80c5 4 12 6 19 6 10 0 17-5 17-13 0-7-4-10-15-13-6-2-8-3-8-5s2-4 7-4 10 2 14 5l7-10c-5-4-12-6-20-6-13 0-22 6-22 16 0 8 6 12 16 15 6 2 8 3 8 5s-2 4-7 4c-6 0-12-2-17-6l-8 10Z" fill="none" stroke="#f4f4f2" stroke-width="5" stroke-linejoin="round"/>
</svg>
